/* XPM */
static char *_7afa05674264c36b23a60348d76c2f8U1oCCqaIsqE6vf7r[] = {
/* columns rows colors chars-per-pixel */
"128 128 20 1 ",
"  c #232323",
". c #282828",
"X c #2C2C2C",
"o c #322D22",
"O c #3D3626",
"+ c #363228",
"@ c #2C3031",
"# c #35353B",
"$ c #412921",
"% c #423629",
"& c #453F2A",
"* c #4F3F2B",
"= c #5B4326",
"- c #53472C",
"; c #604C33",
": c #6D5536",
"> c #7B5C3C",
", c #866741",
"< c #976E45",
"1 c #AD7F4E",
/* pixels */
"-----**------;;;-------;;;;;;;---------------;---------;;;;;;;;;----------------------------------------------------------------",
">>;;;;;;:>:::;;::::>:::;;::::::::;::>:::;;;;;;;::;;;-------;::>>>>>>>:::>:;--;;;;;:>,,,>::::;;;;;;;;::;-----;:>>>>>>>>>>>>>:::>>",
">>:;;:::;;;;::>,,:;-;;::>,,,>>::;::;;;:::>>>:;------;;;;;;;;;;;:>::;;;;;;;;;;;::>,,>>:;;;;;;---;;;;;;::;----;;;;;:,,>>>::;;;;;;:",
"::::;;--;;;:>>::;--;;:>>:::;;--*------;;;:::>>>>:::;;;;::>>>>>>:;---------:,,,,,,:;;;;;;----;;;;;;;----;::;---;;;;;:>>>>>:::::::",
";;;;--;;::::;;---;::::;;---*--;;;;;:::>:;;;;::>>>>>>>:::;:::;;;;;:::::::;-----------;;;;;;;::>>>>>>>:;;-;;:>:;;::>,,>>:;;;;;;---",
",,,,,,>::;;----;;::;;;--*--;;;;:::::;--;:::;;;;::;;::;;;;;;;;:::;;;;--;;:>::::::::>>>>>>>:;;---;::>>>>:;;;---;,,,,:;;;;;;----;;;",
">:::::;::;-;::::::;;---;;;;>>>,,;;;::;--;;:::;;;;;;;;;;;;;::>>,,>>>:;;---;;::;:>>:;;;;;;------------;:>>>:;;--;;;----;;;;;;;::>>",
"::::;;:;:;;:>>::;:;-;;:>::::::;;;::;-:;---;:::::::;:::::::>>>>::;;;;:>>;------;,,,,>>;--;;;----;:>>;;;;:::>>,>:;:::>>>>>>>:;;---",
"::;;;::;;;:::;;-----;;:::>>:;;;;;;-;:;;;----::::;;;;;;;;:::>>:::-------;::;---------;;--;::;;;;;;;;:>:;-;::;;;;;>>:;;;;;;-------",
"-----***-------------------*----------------------------------------------------------------------------------------------------",
"%*%**%*%%*O++oo++OO%%+oo%*%%*%*-*%*OoO%%-**%*OooO*-%%%%***%%*%&+%%**;%%%o%*-*%%%O*;-%%%%o%****%-%%*%+o%****%%%*-%%**Oooooooooooo",
"%**;-*-*-*%O+O*****%%+++*-**-**;-**%+%**;----%++**;****---**-*&O%*--:**%+*-***;-%*-;-***+*;---*-**-*%+*-;;**-*-;-*--%Oo+++%%*%O+",
"%--:;-;;;-*OO*-;-;---*%O-;--;-;:;--*O%--;;-;;*OO--;;;---;;--;--&%-;;:-;*O-;--;:-*-;::;-*O-:;;;;;;*-;*O-:;;;-;--::--;*%+*-*--;-*%",
"%;;::;::>;-O*;;:;>;;;;-%;:;;:;:>;;;-%*;;:;;::-%%;;:>:;;;::;;;;;&%;;::;:-%;:;;>:;-;:>>:;-%;:::::;:;;>-%;>:;:::;;:>:;:-*%;:;;:>;;-",
"%;;::;:;>;-%*;;:::;;;;-%-;;;:;:>;;;-%*;;;;;>:-%%;;:::;;;::;;::;&%-;:;;:-%;:;;>;;-;::,:;-%;:::::;:;;:-%;:;;::;:;;,:;;-*%;>>;;>;:-",
"%;::::;;>;-O;;;:::;;;;-%-;;;:;;:;;;--*;;;;;::-%%;:;::;;;:>;;::;&%-;>;::-%;:;;>;;*;::,:;-%;:::::;::;:-%;:;;:;::;;,;;;-*%;>>:;>;:-",
"%;:>::;:>;-O;;;:>::;;;-%-;;;:;;:;;;-**;;;;:;;-%%;:;;::;;:>:;::;&%-;:;::-%;:;:>:;*;::>,;;%;>::>:;;>::-%;:::;:>:;;>;:;;*%;:,:;>;>-",
"%;:>::;:>;-%-:;;>::;;;-%-;;;:;;::;;;-*;;;;:;;-%%;:;;;:;;;>:;::;&%-:;;:;-%-;:>::;%;:::,;;%;>::>:;;>:;;%;>>:;:,:;;:;:;;*%;:,:;::>-",
"%;::::;;:;-%-:;;>:>;;;;%-;;::;;;:;;;**;;;::;;-%%;::;;:;;;>>;;:;&%-:;:>;-%O-;;;:*%;:::,;-%;>::::;;:>;;%;:>;;:,:;;;:;;-*%;:>,;:>>-",
"%;;;::;;:;-%-::;>;>;:;;%-;;::;;:>;;;**;;::;;;-%%*:::;:;;;>>:;:;&%;:;:>;-%O%%*-;%O*;;;:-*%;>::::;;:,:;%;:>;;:>:;;;>:;*%%;::,;:>:-",
"%;;;::;;:;-%->:;:;>;:;-%-;::>:;:>;;;-*;:::;:;-**%:::;;:;;:,:;:;&%;;;:>;-%%O****O%%*%*-%O%;>::::;;;,:-%;:>;:>>:;;;>:;*%%;::,;::;-",
"%;;;::;;;;-%*>:;:;>;:;-%;:>>>:;:>;;;;*;::;;:;;**%;:>;;>:;:,:;;;&%;;:>:;-*%;;;;:-;;:-;:-*%;,::>::;;::-%;>:;:>:;;;;>:-*%*;::,;::;-",
"%-;;::;;::-%*:;;:;>;::-%;:>>>>;;>;:;;*;::;;>;-***;:>:;::;:>,;;:&%-;:>;;;O;:>;:>:;:>;;>;-%;>::>:::;;:-%;:;;>,;;;;;:;-*O*;;:,;::;-",
"%;;-:>;;::-%*:;:::>;::-%;:>:>>:;>;:;-*;::;:>:;**%;;>:;;:;::,;;:&%-;>>;;-%;:>;:>;;:>;;>:*%;:::::;:;;>-%;:;:,,;:;;::;-*O*;;:,;::--",
"%;;*;>:;::-%;;;>;>>;::-%;::::,:;>;>;-*;;:;:>:;--%-;:::;;;::,;;;&%-:>>;:-%;:>;:>;;:>;;::*%;:::::;:;;:-%;;:>,:;:;;;::--O*;:;:;::--",
"%;;*;>:;::-%;;;>:,:;::-%;::::,:;::>;-*-;:;;>;;--%-;:::;;;::,;;;&%-:>:;:-%;>>;:>;;:>:;;;-%;:::::;::;:-%;;:>>;;::::::;-O*:::;;>;--",
"%;:-;>:;::-%;::>:,:;::-%;::::>,;:>>;-*-;;;;>;;**%-;;::;;;;:>:;;&%-;>:;;-%;::;:>:;;>>;;;-%;>::>:;;>::-%;;:>:;;>:;:>:;-O-:>:;::;;-",
"%;:-;>>;;:-%;:>::>>;:;-%-:;:::,;:>>;-*-;:;:>;;**%*-;::;;;:;::;;&%-;>:;;-%;:>;:>:;;:>:;;-%;>::>:;;>:;;%-;::;;;>:;;,;;-%-:::;::;;-",
"%;:-;>>:;:-%;::::>>;:;-%-;;;::,;::;;-%-;:;:>;;--*%-;::;;;:;;:;;&%-:>;;;-%;:>;;>:;;::>;--%;>::::;;:>;;%;::;;;;>:;;>;;-%;:::;:;;:-",
"%;:-;:,:;:-%;:::>::;:;-%*;;;::,;:;;-*%-;:;;:;;--%%-:::;;::;;:;;&%-:>;;;-%;::;;>:;;::,:--%;>:>::;;:,:;%;>;;;;:>:;;>:;-%;:::;:;;:-",
"%;;-;:,:;;-%;:::>;:;:;-%*;;;;:,;;;;-*O-;:;;:;;--*%;:::;;::;;;;;&%-;:;;;-%;::;;:>;;::>:--%;>:>::;;:,:;%;>;;;;::;;;>:;-%;:>:;:;:;-",
"%;;-;:>,;;;%;:>::;;;:;;%-;::;:,;;:;*%%;;:;;:;;--*%;:::;;::;;::;&%-;:;;;-%;:::;;>;;::>>-;%;>:::>;;;,:;%;:;;;:>:;;;>:;-%;:>:;:::;-",
"%;;*;::,;;;%;:>:;;;::;;%-::::;>;;:;*%%;::;;;;;--*%;::;;;:>;;::;&%-;::;;-%;:;:;;>;;::>>;;%;>:::>;;;>:;%;;;;;>>;;:;::;-%;:::;::>;-",
"%-;*;::,;;-%;:;;;>:;;;;%;>:::::;;:;-%%;::;;:;;--*O::;::;;>:;::;&%-;;:;;-%;:;:;;>;;:::>;-%;>:::>;;;>:;%-;;;:>:;;:;;:;-%;:::;:;>;-",
"%*;%;::>;;-%;>;;:>;;;;-%;>::>:::;;:-%%;:>:;:;;--*%;:;::;;>>;;:;&%-;:>;;*%;:;::;>:;:::>;-%;>:::,;;;::-%*;;;>:;;;:;;:;-%;::::;;>;-",
"%*;*-;;;;-*%;:;;>:;;;;-%;:::::;:;;>-%*:>>:;:;;--**;;:::;;:>:;:;&%;;:>;;-%;:;;>:>:;:>::;-%;,:::,:;;::-&%;;:,:;;;:;;:;-%;:>::;:>;-",
"%%;*-----*%%;:;;>;;:;;-%;:::::;:;;:-%*:>>>;;:;--%-;;::;:;;,:;;;&%;;:>;;-%;:;;>:::;:>::;-%;,:::::;;;:-O%;::,;;:;:;;:;-%;:>::;:>;-",
"%O-*%%%%%*%%;:;;>;::;;-%;:::::;::;:-%*::>>:;:---%-;;:;::;;,;;;;-%;;;>;:-%;:;;::;;;:>>;;-%;>;:>::;;:;-O%;:>>;;:;:;;:;-%;::::;;:;-",
"%%---;*---&%;:;:>:::;;;%;>::::;;>::-%*;::,:;>-**%;;:;:>:;;>;:;:-%;:;>;:-%-;;::>;;;>>::;-%;>;:>::;;::*+%-;:;;;:;;;::;-%;::::;;:;-",
"%*-;;>;;;-*%;::;:::;;;-%;:;;:::;:>;-%*;::>;;:;*%%:;;;>::::;;:;;&%;>:;::-%;;;::>:;:>::::-%;::::,:;:::*oO*;:::;;;::,;;-%;::;;>:;;-",
"%-;;:>;::--%;:;:;:;;;;-%;>;;:::;:>;-%-;::>;;:;*%%:;;;>::>;;::;;&%->:;::-%;::>:>:;:>:;::-%;::::>,;:>:-X@%;;::;;;;:>:;-%;:;;;>:;;-",
"%-;:;:;::--%;:::;:;;;;-%;>;;::;;:>;-%-;::>;;:;*%%:;;;>::>;;:>;;&%->>;;:-%;:>::>>;:>:;;;-%-:;:::,;:>:-.@%;;::;;;:;::;-%;::;:>;;;-",
"%;;::;;>;--%-::;;:;;;;-%;>;:::;:>:;-%-;::,;;:-*%*:;;;>:;:;;;>;;&%->>:;:-%;::::>>;:,:;;;-%-;;;::,;::--o+%-;::;;;:;;:;-O-::;:>;;;-",
"%-;>:;::;;-%-;::;;;;;:-%;::::;;:>;;;%;;::,:;:-%%-:;;;:>;:;;;>;;&%-:,:;:-%;:::>::;:,:;;;-%*;;;::,;:;;-+o%*--;-*;-**-*%%-;:;;:;;;-",
"%-;::;::;;-%-:::;;;;;:-%;::::;;>>;;-*;;::::;:-%%;::;;;>;::;:>;;&%-:,:;;-%;:::>;:;:,:;;;-%*;;;;:,;;;;*O%-*O%%O%%*-%%%O%-;:;;:;;;-",
"%-;::;:;;:-%;:;:;;::;;-%;:;::;:>>;:-%-;:>::;;-%%;:>;;;>;::;:>;;&%-:>,;;;%;:>::;;;:,:;;;;%-;::;:,;;:;*%-;:;**%%*-;-*%%%-;:;;::;;-",
"%;;::;:;;:-%;:::;;::;;-%;:;;:;:>:;:-%-;;>::;:-%%;:>;;;;:::;;:;;&%-::,;;;%;:>:;;;::,>;;;;%-::::;>;;:;*%;;:;:;*O-;;;;-*%-;:;;;:;;-",
"%;;>:;:;:;-%;:::;::;;;-%;:;;:;;>:;;-%-;;>::::-%%;;>;;;;:::;;:;;&%-::,;;-%;:;;;>:;;:>:;;;%;>:::::;;:;-%;;>:;;-%;;:;:;-%-;:;;:>;;-",
"%-;>:;:::;-%;>::;:;;;:-%;:;;;;;>:;;-%*;:::;:>-%%;;::;;;;::;;:;;&%-::>;;-%;>;;:>;;;:>>;;-%;>::>:::;;:-%;;::;:-*;>>;;;-%-:>:;:>;;-",
"%;;::;::>;-%;:;:;>;;;;-%;:;;:;:>;;;-%*;;:;;::-%%;;:>:;;;::;;;;;&%*;;;;-*%;:;;>:;;;:>>:;-%;:::::;:;;>-%;>:;::-*;:>:;:-%;:>:;:>;;-",
"%;;::;:;>;-%;;;:::;;;;-%-;;;:;:>;;;-%*;;;;;>:-%%;;:::;;;::;;::;&%*----*%%;:;;>;;:;::,:;-%;:::::;:;;:-%;:;;::-*;;,:;;-%;:>>;;>;:-",
"%;::::;;>;-%;;;:::;;;;-%-;;;:;;:;;;-%*;;;;;::-%%;:;::;;;:>;;::;&%O%%%%*%%;:;;>;::;::,:;-%;:::::;::;:-%;:;;:;-*;;,;;;-%;:>>:;>;:-",
"%;:>::;:>;-%;;;:>::;;;-%-;;;:;;:;;;-%*;;;;:;;-%%;:;;::;;;:;;;;-&%*----*%%;:;:>:>:;::>,;;%;>::>:;;>::-%;:::;;;*;;>;:;;%;::,:;>;>-",
"%;:>::;:>;-%;:;;>::;;;-%-;;;:;;::;;-%*;;;;:;;-%%-;;;;;;;*-****&&%-:;;;;-%;::>::,:;:::,;;%;>::>:;;>:;;%;>>:;:;*;;:;:;;%;::,:;::>-",
"%;::::;;:;-%;:;;>:>;;;;%-;;::;;;:;;-%*;;;::;;-%%*%%%%%%%%*%%%%&&%-:;:>;-%;:::::>:;:::,;-%;>::::;;:>;;%;:>;;:;%;;;:;;-%;::>,;:>>-",
"%;;:::;;:;-%;::;>;>;:;;%-;;::;;:>;;-%*;;::;;;-%%----*----;;---&&%;:;:>;-%;::;:>>:;:;:>;-%;:::::;;:,:;%;:>;;:;*;;;>:;*%;:::,;:>:-",
"%;;:::;;:;-%;>:;:;>;:;-%-;::>:;:>;;-%*;:::;:;-%%;:::;;:;;:>;;;-&%;;;:>;-%;::;;>::;:;:>;-%;:::::;;;,:-%;:>;:>;*;;;>:;*%;:::,;::;-",
"%;;>::;;;;-%;>:;:;>;:;-%;:>>>:;:>;;-%*;::;;:;;%%:;:>;;>:;:,:;;;&%;;:>:;-*;::;:>:;:>;;>;-%;;::>::;;::-%;>:;:>;*;;;>:-*%;:::,;::;-",
"%-;>::;;::-%;:;;:;>;::-%;:>>>>;;>;:-%*;::;;>;-**:;:>:;::;:>,;;:&%-;:>;;;%;:>;:>:;:>;;>;-%*;::>:::;;:-%;:;;>,;*;;;:;-*%;:;:,;::;-",
"--------------------------------------------------------------------------------------------------------------------------------",
">>>>::>>::>>>>>::::>>::>>>>::>>>>>>>>:::::::::>>>>>>>>:::::::::::>,,>>>>>>>>::>>,,>::::::::>>>>:::::::>>::>>>>>>>>::>>,<<<<,>>::",
">>>>>>>::>>,,,,,,,>>,,>>:>>>>::>,<,,>>>>>:>>>>,,<,,,>>>>>>>::>>::::,<<<,>>>>,<<<>:::::>>>>,<<>:::>>::::>,>>>,<11<<>::::::>>,<<>:",
";;;;;:::;;;;;;;;;:>>::;;-;;::;--;;::::::::::::;;---;;;;;;;;;;::;;;---;:>>>>>>;-------;;:;;;--;;::::::;;;;::;;;;::>>,,>;-;;-;:>>:",
"----;;;;;::::;;:;;;;;:::;--;;::::;;;;;;;;;;;;;;;-;;:::;;---;;;;;,,>:;;;;----;;;---;;::;;---;;;;;;:;;:::;;;;::;--;;:>,,>;;---;;:>",
";;;;;;;;;;;-----;:::;;;;:;---;-;;:;-----;;-----;;;;-------;;;;;;;:>>:;;;;--------;:>:;--;;:>>>:;--;;;:>>:;;-;:;;---;:>>>;-----;;",
";;;;;;;-----;;;---;::;;;:::;-----;;;;;:::::::;;;---;;--;;;-;;;;;-;;:>>>>:;----;>>>:;;;-;;:::;;------;;:>>>;-;:>>>>;--;:::;;;;---",
";;;;;:;;;;;;;::;;;;;;::;;;;;:;;;;;;;::;;:::;;;;;;;;;;;;-;;;;;;;;;;-;;:>>>:;;:::;;;;-;;:::;;;;-----;::;;:>>>:::::;:>:;;;-;:>>:;-;",
"--;:::>>>>:::::::;:::::::::::::::::::::::::::::;;;;;;;;;-;:;---->:;;;;;-;:;------:>,,,<<,>:>>:>:;:>::>:>:>,>>::>:>,,,,>:;::>,,,,",
"--------------------------------------------------------------------------------------------------------------------------------",
"%oO*%%%-OOo O%OOO*%oOOO O*%%%%%OO%Oo  O%%OO%Oo  O**%O%%OO*%O%%Oo oOO%OOo O%O%OO*OO%%%*Ooo O%%%*OOO*%O OOOO%*OOO%OO%Oo O%%%O%O*Oo",
"%%*;---;**%o*;**-;*%**%o*;--;---**-%oo*-;-*-*%oo*;--*--**;;**-*O%%*-;**Oo*-*--*;-*---;*%Oo*---:***--%o****;-***-**-*%o*----**;*%",
"o&*;--;---%**--;-;****&%*;-;;-;----*O%*;;;-;*&$O*;--;--;*;;;--*#%*;;;;-***;;;;:;;;:;:;--%*-;;::;;-;;***-;:;:-;;;-;;-***;:;;;;:--",
"%-;-;;;;;;**-;;;;;;--=**-;:;:;;;;;=-&*-:::;;;*%*-;;;;;;;;:;:;-;&%;;:>;;-%;:;;>:::;:>::;-*%::::::;;;:-%;;::,;;:;:;;:;-%;:>::;:>;-",
"%-;;;;>;::-%;:;;>;;*;;-%;:::::;::;:-%*;:>>:;:-%%;:;;:;::;;,;;;;&%:;;>;:-%;:;;::;;;:>>;;-**;;:>::;;:;-%-;:>>;;:;:;;:;-%;::::;;:;-",
"%-;;;;:;::-%;:;:>:;*;;;%;>::>:;;>::-%*;::,:;>-%%;:::;:>:;;>;:;:&%::;>;:-%-;;;::;;;:>>:;-*%;;;>::;;::-%-;:>:;::;;;::;-%;::::;;:;-",
"%*:;;:;;:;-%-;:>::;%;;;%;>::>:;;>:;;%*;::,:;>-%%;>>:;:,:;;:;:;:&%>:;>;>-%-;;;;::;;::,:;-**;;;>:;;;;;-%;:>::;>:;;;:;;-%;::::;;:;-",
"%*:;;:;:>;-%O-;;;:*%;;-%;>::::;;:>;;%*;::>,;>-%%;:>;;:,:;;;:;;--%>:;::>-%;:;;;::;;::,:;-*%%*;;;-----%%;:>:::>;;;::;;-%;:>::;;;;-",
"%*:;::;:>;-%O%%*-;%O*-*%;>::::;;:,:;%*;:::,;>-%%;:>;;:>:;;;>:;--%:,;:>>-%;:;;;::;;::>,;;%O%%%%%%%%*-%%;>>:::>;;;:;;;-%-:>::;;::-",
"%*;::;;:>;-%%O****O%%%O%;>::::;;;,:-%O-;::,;;-%%;:>;:>>:;;;>:;--%;,;:>:-%;:;;;:;;;:::,;;%O%----;;-%*%%;>>::>::;::;;:-%-;::>;;::-",
"%*:::;:>:;-*%;;;;:-;;-*%;,::>::;;::-%O-;::,;;-%%;>:;:>:;;;;>:---%;,;::;-%-;;;:;;;;:::,;-%-;;;;;;:;::-%;>:;;>::;:;;;:-%-;::>:;::-",
"%*::;;:>;;;O;:>;:>:;:;-%;>::>:::;;:-%O-;;:,;;-%%;:;;>,;;;;;:;---%;,;::;-%;;;;:;;;;:::,;-%;:;;;;:;;:;-%;>:;;>::;:;;;:-%;;::>:;::-",
"%*::;;>>;;-%;:>;:>;;::*%;:::::;:;;>-%%;:;:,;;*%%;:;:,,;:;;::;---%;,;::;-%;::;::;;;:::,;-%;:;;;;:;:>;-%;:;;;>::::;;:;-%;::>>:;::-",
"%-::;:>>;:-%;:>;:>;;::*%;:::::;:;;:-%*-::;>;-%%%;;:>,:;:;;;::-;-%;,;::-*%;:;:;:;;;:;:>;-%;>;;;::;:>;-%;:;;;>::>;;::;-%;::>>>;;:-",
"%-::;:>:;:-%;>>;:>;;:;-%;:::::;::;:-%%*----;%O%%;;:>>;;::::::;;&%-:;::--%;:::;:;;;;;;>;-%;>;;::;;:>;-%;:;;;>::>;;:>;-%;::>>>:;:-",
"%-::;;>:;;-%;::;:>:;;;-%;>::>:;;>::-%%*-%%%%-%%%-;:>:;;>:;:>:;;&%;;;>;--%-::;;:;;;;;;>;-%;>;:::;:>:;-%;:;;;>:;:;;;>;-%;::,:,:;:-",
"%-:;;;>:;;-%;:>;:>:;;;-%;>::>:;;>:;;%O%*;;;-;%OO-;::;;;>:;;,;;;&%;;::;;-%-;::;;;;;;;;>:-%;::::;;:>;;;%;:;;;:>;:;;;>;-%;::,:,:;;-",
"%-::;:>;;;-%;:>;;>:;;--%;>::::;;:>;;%%-;;;;::-%%;::;;;;>:;;>;;;&%;;::;;-%-:::;;;;;;;;::-%;::::;;>>;;-*;::;;;>;::;:>;-%;::::>,;;-",
"%;::;:>;;;-%;::;;>:;;--%;>:>::;;:,:;%*;:::;::-%%;>;;;;:>:;;>:;;&%;;:;;:-%;:;:;;::;;:;;;-%;:;::;:>>;:-%;:>;;;>;::;:>;-%;:>:::,;;-",
"%;::;;:;;;-%;::;;:>;;--%;>:>::;;:,:;%*;:>:;;:-%%;>;;;;::;;;>:;;&%;;:;;:-%;:::;;::;;:;;;-%;:;;:;:>:;:-%-:>;;;;:::;;:;-%;:>:::,;;-",
"%;::;;:;;;-%;:::;;>;;-;%;>:::>;;;,:;%*;:>:;;;;%%;:;;;:>:;;;>:;;&%;;:;:;-%;:::;::;;:;;;;-%;:;;:;;>:;;-%;;>;;;;:::;;:;-%;:>:::>;;-",
"%;::;;::;;-%;:;:;;,;;;;%;>:::>;;;>:;%*;:::;;;;%%;;;;;>>;;:;::;;&%;;:::;-%;>::;:;;;:;;;:-%;:;;;;;>:;;-%;;::;;;;::;;:;-%;:::;::;:-",
"%;::;;;:;;-%;:;:;;>;;;-%;>:::>;;;>:;%*;:::;;:;%%;;;;:>:;;:;;:;;&%;;::>;-%;:;:;>;;;:;;;;-%;:;;:;:>;;;-%;;:>:;;;::;;;;-%;::;;:;;:-",
"%;:>;;:>;;*%;:;::;>:;;-%;>:::,;;;::-%-;:::;;:-%%;;;;>:;;;:;;:;;&%;;:;>;-%;;;:::;;;:;;:;-%-;;;:;:>;;;-%;;:::;;;::;;::-%;;;;;>;::-",
"%;:>:;:>;;-%;:;;>:>:;;-%;,:::,:;;::-%;;:>::;:-%%;;;:,:;;;:;;:;;&%;:;;>;-%;;;:::;;;:;;:;-%-;;;:;;:;;;-%;:;::;;;:>;;::-%;;;;;:;::-",
"%;>>:;:>;;-%;:;;>:::;;-%;,:::::;;;:-%-;:>::::-%%;;::,;;:;:;;:;;&%;:;:>;-%;;;:>::;;:;::;-%-;;;:;;:;;;-%;:;;::;;:>:;::-%;;;;:;;:;-",
"%;>>>;;>;:-%;:;;::;;;;-%;>;:>::;;:;-%*;:::;:>-%%-;:>>;;:;:;;:;;&%;:;:>;-%;:;;>::;;:;:;;-%-;;;:;;::;;-%;:;;;:;;;>:;::-%;;;;:;:>;-",
"%;:>>:;>;:-%-;;;::;;;;-%;>;;>::;;::-%*;:::;::-%%-;:>:;::;;;::;;&%;:;;:;-%;:;;>:>;;:::;;;%-;;::;;;:;;-%;::;;:;;;>>;;:-%;;;::;:>;-",
"%;::,:;>;>-%-;;;;::;;;-%;>;;>:::;;:-%*;:::;::-%%;:>::;>:;;;:;;;&%;:;;:;-%;::;>;>;:>:;;;;%-;;::;;:>;;-%;:::;:;;;>>:;:-%;:::;;:>;-",
"%;::,:;::>-%;:;;;::;;;-%;>;:::;:;;>-%*;:>:;;:-%%;:>:::>;;;::;;;&%;:;;:;-%;>:;:;>;:,:;;;-%-;::>:;:>;;-%;:::;;:;;:,:;:-%;:::;:>:;-",
"%;>:>,;:>>-%;:;;;::;;;;%;:;;:;;:;;:-%*;:>:;;;;%%;>>:::>;;;:;;;;&%;:;;;;-%;>:;:;>;:,;;:;-%;:>>>:;:>;;-%;;:>;;>:;:,:;;-%;::;;:>;;-",
"%;>::,;:>:-%;:;;;:;;;;;%;:;;;;;>;::-%*;:::;;;;%%;>>::>::;::;;:;&%;:;;::-%;:;;:;>;:,;;::-%;:>>>>;;>;:-%;;:>:;::;:>,;;;%;::;;>>;;;",
"%-:::,;::;-%-;;;:;;;;;-%;:;;;;;:;::-%*;>::;;:;%%;>:;;>::;:;;;:;&%;>;;::-%;:;:::>;:,;;;:-%;:>:>>:;>;:-%-;;>:;;:;::,;;;%;::;:>>;:-",
"%-;::,;::;-%;;;;:;;;;;-%;:;;;;:;;:;-%*;>::;;:;%%;>:;;>::;:;;;:;&%;>:;::-%;:;>;>>;:,;;;:-%;::::,:;>;>-%-;;:::;;;::,;;-%;::;:>:;:-",
"%-;;:,;::;-%;::;::;;;;-%;:;;;;:;:>;-%*;::>;;:;%%;:;;;>::::;;:;;&%;>:;::-%;:;>:,:;:,:;::-%;::::,:;::>-%-;;:::;;;::,;;-%;::;;>:;;-",
"%-;;:,;::-*%-:;:;:;;;;-%;>;;;::;:>;-%-;::>;;:;%%;:;;;>::>;;::;;&%:>:;::-%;::>:,:;:>:;::-%;::::>,;:>>-%-;;;::;;;;:>:;-%;:;;;>:;;-",
"%-;:;:;::--%;;::;:;;;;-%;>;;::;;:>;-%-;::>;;:;%%;:;;;>::>;;:>;;&%:>>;;:-%;:>::>>;:>:;;;-%;:;:::,;:>>-%-;;;::;;;:;::;-%;::;:>;;;-",
"%;;::;;>;--%-;:;;:;;;;-%;>;:::;:>:;-%-;::,;;:-%%;:;;;>:;:;;;>;;&%:>>:;:-%;::::>>;:,:;;;-%-;;;::,;::;-%-;;;::;;;:;;:;-%;::;:>;;;-",
"%-;>:;::;;-%*-::;;;;;:-%;::::;;:>;;;%;;::,:;:-%%;:;;;:>;:;;;>;;&%>:,:;:-%;:::>::-:,:;;;-%-;;;::,;:;;-%;:;:::;;::;;:;-%-;:;;:;;;-",
"%-;::;::;;-%%-::;;;;;:-%;::::;;>>;;-%;;::::;:-%%;::;;;>;::;:>;;&%>:,:;;-%;:::>;:-:,:;;;-%-;;;;:,;;;;-%;:;:::;;::;;;;-%-;:;;:;;;-",
"%-;::;:;;:-*%*;;;;;:;;-%;:;::;:>>;:-%-;:>::;;-%%;:>;;;>;::;:>;;&%;:>,;;;%;:>::;;-:,:;;;;%-;::;:,;;:;*%;:::::;;::;;::-%*;;;;;;;-*",
"%;;::;:;;:-**%%**--;;*%%;:;;:;:>:;:-%-;;>::;:-%%-:>;;;;:::;;:;;&%;::,;;;%;:>:;;;-:,>;;;;%;::::;>;;:;*%;::::;;;:>;;::-OO%%%%OOOOO",
"%;;>:;:;:;-*%*;;;;;--%%%;:;;:;;>:;;-%-;;>::::-%%;;>;;;;:::;;:;;&%;::,;;-%;:;;;>:-;:>:;;;%;>:::::;;:;-%;:>>;;:;:>:;::-*O%%%--;-*%",
"%-;>:;:::;-*O-;;;;;;;;*%;:;;;;;>:;;-%*;:::;:>-%%;;::;;;;::;;:;;&%;::>;;-%;>;;:>;-;:>>;;-%;>::>:::;;:-%;>::;::;;>>;;:-*O-;--;:;-*",
"%;;::;::>;-O*;;:;>;;;;-%;:;;:;:>;;;-%*;;:;;::-%%;;:>:;;;::;;;;;&%;;::;:-%;:;;>:;-;:>>:;-%;:::::;:;;>-%;>:;:::;;:>:;:-*%;:;;:>;;-",
"%;;::;:;>;-%*;;:::;;;;-%-;;;:;:>;;;-%*;;;;;>:-%%;;:::;;;::;;::;&%-;:;;:-%;:;;>;;-;::,:;-%;:::::;:;;:-%;:;;::;:;;,:;;-*%;>>;;>;:-",
"%-;;;;;-:--+---;;;;;---%---;;-;:;;--%%----;;;-%%-;;;;---;:--;;;&%*-;-;;-%-;--:--%-;;>:--%-;;;;;-;;-;-%-;--;;;;-->;---%%-::;-:-;-",
"%*-;--*-;*%o&***;--***%+%***-**;-**%OO****-**%++*-***-***;-*--&O%%***-*%+&**-;-*O*--;:*&+*;--;-**;-*%+*---*-;-**;*-*&O+*;:-*;*;%",
"%%*-**%*-%OoO*%%-**%%%OoO%%%*%%**%%%O+%%%%*%%Ooo%*%%%*%%%-*%**&+%O*%%*%OoO%*-**%o%***;%%o%-**-*%%-*%%o%--*%*;*%%*%*%%+o%*;*%**-O",
"--------------------------------------------------------------------------------------------------------------------------------",
":>,,>>>>>>>>::>>,,>::::::::>>>>:::::::>>::>>>>>>>>::>>,<<<<,>>::>>>>::>>::>>>>>::::>>::>>>>::>>>>>>>>:::::::::>>>>>>>>::::::::::",
":::,<<<,>>>>,<<<>:::::>>>>,<<>:::>>::::>,>>>,<11<<>::::::>>,<<>:>>>>>>>::>>,,,,,,,>>,,>>:>>>>::>,<,,>>>>>:>>>>,,<,,,>>>>>>>::>>:",
";;---;:>>>>>>;-------;;:;;;--;;::::::;;;;::;;;;::>>,,>;-;;-;:>>:;;;;;:::;;;;;;;;;:>>::;;-;;::;--;;::::::::::::;;---;;;;;;;;;;::;",
",,>:;;;;----;;;---;;::;;---;;;;;;:;;:::;;;;::;--;;:>,,>;;---;;:>----;;;;;::::;;:;;;;;:::;--;;::::;;;;;;;;;;;;;;;-;;:::;;---;;;;;",
";:>>:;;;;--------;:>:;--;;:>>>:;--;;;:>>:;;-;:;;---;:>>>;-----;;;;;;;;;;;;;-----;:::;;;;:;---;-;;:;-----;;-----;;;;-------;;;;;;",
"-;;:>>>>:;----;>>>:;;;-;;:::;;------;;:>>>;-;:>>>>;--;:::;;;;---;;;;;;;-----;;;---;::;;;:::;-----;;;;;:::::::;;;---;;--;;;-;;;;;",
";;-;;:>>>:;;:::;;;;-;;:::;;;;-----;::;;:>>>:::::;:>:;;;-;:>>:;-;;;;;;:;;;;;;;::;;;;;;::;;;;;:;;;;;;;::;;:::;;;;;;;;;;;;-;;;;;;;;",
">:;;;;;-;:;------:>,,,<<,>:>>:>:;:>::>:>:>,>>::>:>,,,,>:;::>,,,,--;:::>>>>:::::::;:::::::::::::::::::::::::::::;;;;;;;;;-;:;----",
"--------------------------------------------------------------------------------------------------------------------------------"
};
